<svg width="15" height="14" viewBox="0 0 15 14" fill="none" xmlns="http://www.w3.org/2000/svg">
<g clip-path="url(#clip0_189_6042)">
<path d="M10.6667 0C10.512 0 10.3636 0.0614582 10.2542 0.170854C10.1448 0.280251 10.0833 0.428624 10.0833 0.583333C10.0833 2.30358 8.57658 2.91667 7.16667 2.91667H3.08333C2.46449 2.91667 1.871 3.1625 1.43342 3.60008C0.995833 4.03767 0.75 4.63116 0.75 5.25L0.75 6.41667C0.751274 6.76593 0.831353 7.1104 0.984268 7.42442C1.13718 7.73843 1.35899 8.01388 1.63317 8.23025L3.71683 12.8806C3.86502 13.2137 4.1066 13.4968 4.41232 13.6954C4.71805 13.8941 5.07481 13.9999 5.43942 14C5.72951 13.9998 6.01496 13.9271 6.26977 13.7884C6.52458 13.6497 6.74067 13.4496 6.89836 13.2061C7.05605 12.9626 7.15034 12.6835 7.17265 12.3943C7.19496 12.105 7.14457 11.8148 7.02608 11.55L5.74275 8.75H7.16667C8.57658 8.75 10.0833 9.36308 10.0833 11.0833C10.0833 11.238 10.1448 11.3864 10.2542 11.4958C10.3636 11.6052 10.512 11.6667 10.6667 11.6667C10.8214 11.6667 10.9697 11.6052 11.0791 11.4958C11.1885 11.3864 11.25 11.238 11.25 11.0833V0.583333C11.25 0.428624 11.1885 0.280251 11.0791 0.170854C10.9697 0.0614582 10.8214 0 10.6667 0ZM5.96325 12.0277C6.00189 12.115 6.01814 12.2105 6.01053 12.3057C6.00291 12.4008 5.97168 12.4925 5.91966 12.5725C5.86763 12.6525 5.79647 12.7183 5.71261 12.7638C5.62875 12.8094 5.53485 12.8333 5.43942 12.8333C5.30023 12.8332 5.16407 12.7927 5.04747 12.7167C4.93087 12.6407 4.83885 12.5325 4.78258 12.4052L3.14458 8.75H4.45942L5.96325 12.0277ZM10.0833 8.51667C9.24992 7.87453 8.21805 7.54433 7.16667 7.58333H3.08333C2.77391 7.58333 2.47717 7.46042 2.25838 7.24162C2.03958 7.02283 1.91667 6.72609 1.91667 6.41667V5.25C1.91667 4.94058 2.03958 4.64383 2.25838 4.42504C2.47717 4.20625 2.77391 4.08333 3.08333 4.08333H7.16667C8.21769 4.12317 9.24953 3.79402 10.0833 3.15292V8.51667ZM14.6917 9.01367C14.6574 9.08225 14.6101 9.14342 14.5522 9.19367C14.4943 9.24393 14.4271 9.28229 14.3544 9.30656C14.2817 9.33083 14.2049 9.34053 14.1285 9.33512C14.052 9.3297 13.9774 9.30927 13.9088 9.275L12.7422 8.69167C12.6037 8.62251 12.4984 8.50118 12.4494 8.35437C12.4004 8.20756 12.4117 8.0473 12.4808 7.90883C12.55 7.77037 12.6713 7.66505 12.8181 7.61604C12.9649 7.56703 13.1252 7.57834 13.2637 7.6475L14.4303 8.23083C14.5681 8.29994 14.6729 8.42076 14.7219 8.56689C14.7708 8.71302 14.76 8.87259 14.6917 9.01075V9.01367ZM12.4808 3.76367C12.4466 3.69511 12.4261 3.62047 12.4207 3.54402C12.4153 3.46757 12.425 3.3908 12.4493 3.31809C12.4735 3.24539 12.5119 3.17819 12.5622 3.12032C12.6124 3.06245 12.6736 3.01505 12.7422 2.98083L13.9088 2.3975C14.0473 2.32834 14.2076 2.31703 14.3544 2.36604C14.5012 2.41505 14.6225 2.52037 14.6917 2.65883C14.7608 2.7973 14.7721 2.95756 14.7231 3.10437C14.6741 3.25118 14.5688 3.37251 14.4303 3.44167L13.2637 4.025C13.1951 4.05927 13.1205 4.0797 13.044 4.08512C12.9676 4.09053 12.8908 4.08083 12.8181 4.05656C12.7454 4.03229 12.6782 3.99393 12.6203 3.94367C12.5624 3.89342 12.5151 3.83225 12.4808 3.76367ZM12.4167 5.83333C12.4167 5.67862 12.4781 5.53025 12.5875 5.42085C12.6969 5.31146 12.8453 5.25 13 5.25H14.1667C14.3214 5.25 14.4697 5.31146 14.5791 5.42085C14.6885 5.53025 14.75 5.67862 14.75 5.83333C14.75 5.98804 14.6885 6.13642 14.5791 6.24581C14.4697 6.35521 14.3214 6.41667 14.1667 6.41667H13C12.8453 6.41667 12.6969 6.35521 12.5875 6.24581C12.4781 6.13642 12.4167 5.98804 12.4167 5.83333Z" fill="#F3610B"/>
</g>
<defs>
<clipPath id="clip0_189_6042">
<rect width="14" height="14" fill="white" transform="translate(0.75)"/>
</clipPath>
</defs>
</svg>
